Coordinates
version=1
nRows=8
nColumns=63
inDegrees=yes

Units are S.I. units (second, meters, Newtons, ...)
If the header above contains a line with 'inDegrees', this indicates whether rotational values are in degrees (yes) or radians (no).

endheader
time	pelvis_tilt	pelvis_list	pelvis_rotation	pelvis_tx	pelvis_ty	pelvis_tz	hip_flexion_r	hip_adduction_r	hip_rotation_r	knee_angle_r	knee_angle_r_beta	ankle_angle_r	subtalar_angle_r	mtp_angle_r	hip_flexion_l	hip_adduction_l	hip_rotation_l	knee_angle_l	knee_angle_l_beta	ankle_angle_l	subtalar_angle_l	mtp_angle_l	L5_S1_Flex_Ext	L5_S1_Lat_Bending	L5_S1_axial_rotation	L4_L5_Flex_Ext	L4_L5_Lat_Bending	L4_L5_axial_rotation	L3_L4_Flex_Ext	L3_L4_Lat_Bending	L3_L4_axial_rotation	L2_L3_Flex_Ext	L2_L3_Lat_Bending	L2_L3_axial_rotation	L1_L2_Flex_Ext	L1_L2_Lat_Bending	L1_L2_axial_rotation	L1_T12_Flex_Ext	L1_T12_Lat_Bending	L1_T12_axial_rotation	Abs_r3	Abs_r2	Abs_r1	Abs_t1	Abs_t2	neck_flexion	neck_bending	neck_rotation	arm_flex_r	arm_add_r	arm_rot_r	elbow_flex_r	pro_sup_r	wrist_flex_r	wrist_dev_r	arm_flex_l	arm_add_l	arm_rot_l	elbow_flex_l	pro_sup_l	wrist_flex_l	wrist_dev_l
      4.03389831	      1.35029355	     -0.83701940	     90.45881558	      0.28529225	      0.96955399	      0.47047856	      2.20313799	      2.72999467	     12.70057511	      1.40828599	      0.02457923	     28.51077558	    -15.78621657	      0.00000000	      3.77931421	     -3.44212923	     16.69496864	      1.03744103	      0.01810676	     32.93122607	     -5.92010309	      0.00000000	      0.28142429	      0.17053740	     -1.82595046	      0.52263304	      0.22681474	     -1.94007237	      0.46235196	      0.41464464	     -1.94007237	      0.32163982	      0.41464464	     -1.59770665	      0.26133059	      0.34775987	     -1.48358475	      0.16080584	      0.26416244	     -1.36946285	      2.01018553	      1.92915320	    -10.15538869	      0.00000000	      0.00000000	     27.45348446	      3.18697934	      0.94691254	     14.49214585	    -15.78922268	     77.10139543	     56.78311716	      2.67499896	     -9.32093393	     -1.42522822	     13.70998778	    -16.07178389	     62.68008102	     52.23665623	     67.16297078	      6.89024336	     -1.28949276
      4.05084746	      1.30610222	     -0.86801398	     90.33538164	      0.28485581	      0.96938903	      0.47097305	      2.40936614	      2.65968332	     12.86362701	      1.63951014	      0.02861485	     28.60750499	    -15.87648901	      0.00000000	      3.94477037	     -3.34566390	     16.06202473	      1.17424549	      0.02049445	     33.19171286	     -5.61937954	      0.00000000	      0.28308833	      0.16594041	     -1.77807604	      0.52572334	      0.22070074	     -1.88920580	      0.46508582	      0.40346750	     -1.88920580	      0.32354165	      0.40346750	     -1.55581654	      0.26287582	      0.33838568	     -1.44468679	      0.16175667	      0.25704169	     -1.33355703	      2.02207164	      1.87715106	     -9.88912553	      0.00000000	      0.00000000	     27.25708245	      2.95116681	      0.38340648	     15.05116688	    -15.99117195	     78.16513236	     56.63928217	      2.61479869	     -8.46315605	     -1.93191624	     13.43756425	    -15.67536667	     61.80405955	     51.96363678	     67.43512809	      6.84171943	     -0.60306851
      4.06779661	      1.28033248	     -0.90313563	     90.18693605	      0.28440851	      0.96932346	      0.47152418	      2.66399994	      2.60927196	     12.62574920	      1.94705054	      0.03398244	     28.84071164	    -15.44778783	      0.00000000	      4.16179864	     -3.27493713	     14.24660600	      1.43914052	      0.02511774	     33.77066521	     -3.73321540	      0.00000000	      0.28237657	      0.16010126	     -1.73616736	      0.52440153	      0.21293467	     -1.84467782	      0.46391647	      0.38927020	     -1.84467782	      0.32272818	      0.38927020	     -1.51914644	      0.26221488	      0.32647848	     -1.41063598	      0.16134997	      0.24799685	     -1.30212552	      2.01698761	      1.81109744	     -9.65604200	      0.00000000	      0.00000000	     26.94983543	      2.42532277	     -0.60463650	     15.76820168	    -16.09296444	     79.74579696	     56.40274599	      2.34113681	     -7.50230812	     -3.17634104	     13.00257383	    -15.26732905	     60.56706488	     51.62269732	     68.84967573	      7.03547502	     -0.17908964
      4.08474576	      1.26027433	     -0.94152709	     90.20191033	      0.28388074	      0.96933422	      0.47207738	      2.84153841	      2.55376289	     12.69431240	      2.09116043	      0.03649763	     28.83556002	    -15.57122660	      0.00000000	      4.43825929	     -3.20977359	     12.43827010	      1.80706190	      0.03153918	     34.26379097	     -1.70298740	      0.00000000	      0.27966168	      0.15346286	     -1.71843491	      0.51935971	      0.20410560	     -1.82583709	      0.45945617	      0.37312959	     -1.82583709	      0.31962533	      0.37312959	     -1.50363055	      0.25969384	      0.31294145	     -1.39622837	      0.15979868	      0.23771396	     -1.28882618	      1.99759542	      1.73600251	     -9.55741945	      0.00000000	      0.00000000	     26.46724267	      2.00446612	     -1.13378088	     16.11958275	    -16.08391792	     80.52336935	     56.10575935	      2.25486399	     -6.55008767	     -4.08407139	     12.56380240	    -14.94426865	     59.50120920	     51.43266746	     69.87815070	      7.02405079	      0.45321008
      4.10169492	      1.26157620	     -1.01955791	     90.25074359	      0.28347471	      0.96944475	      0.47282360	      3.11009656	      2.51234572	     11.21504908	      2.30346020	      0.04020296	     29.43089250	    -13.48230448	      0.00000000	      4.83836048	     -3.19633183	     10.19242683	      2.35726001	      0.04114195	     34.82449814	      1.01481116	      0.00000000	      0.27790809	      0.14528898	     -1.66106328	      0.51610312	      0.19323434	     -1.76487974	      0.45657521	      0.35325562	     -1.76487974	      0.31762116	      0.35325562	     -1.45343037	      0.25806545	      0.29627328	     -1.34961392	      0.15879668	      0.22505263	     -1.24579746	      1.98506971	      1.64353797	     -9.23833567	      0.00000000	      0.00000000	     25.70399907	      1.22376831	     -2.03893769	     16.18520193	    -16.07748239	     80.70651486	     55.96419343	      2.09048965	     -6.51092986	     -4.93799207	     12.64810918	    -14.71546243	     59.80977057	     51.05155318	     70.42226739	      6.58238354	     -0.01677095
      4.11864407	      1.21548857	     -1.08087681	     90.21669404	      0.28328260	      0.96960547	      0.47344434	      3.18390436	      2.45280339	     12.50236038	      2.14963656	      0.03751824	     28.91246116	    -15.02519556	      0.00000000	      5.14521647	     -3.12537954	      9.34409240	      2.82448476	      0.04929656	     34.91473059	      1.73859426	      0.00000000	      0.26476629	      0.13961210	     -1.70148097	      0.49169747	      0.18568409	     -1.80782353	      0.43498453	      0.33945286	     -1.80782353	      0.30260139	      0.33945286	     -1.48879584	      0.24586197	      0.28469699	     -1.38245328	      0.15128746	      0.21625914	     -1.27611072	      1.89119910	      1.57931999	     -9.46312669	      0.00000000	      0.00000000	     24.87673751	      1.11300718	     -1.22506315	     16.45720728	    -15.81503396	     81.07370377	     55.59281093	      2.11094226	     -6.06652514	     -5.12016327	     11.47846151	    -14.45444340	     56.96304046	     51.19005007	     72.77974700	      7.16625319	      0.86423203
      4.13559322	      1.21445178	     -1.20498887	     90.40503902	      0.28292028	      0.96977340	      0.47431024	      3.36075835	      2.41619216	     12.21607858	      2.08087835	      0.03631818	     28.91487736	    -14.60789519	      0.00000000	      5.60465461	     -3.11010948	      8.24977435	      3.36640181	      0.05875480	     35.10194969	      3.15892437	      0.00000000	      0.25574839	      0.13814944	     -1.72634534	      0.47495033	      0.18373876	     -1.83424192	      0.42016903	      0.33589656	     -1.83424192	      0.29229483	      0.33589656	     -1.51055217	      0.23748795	      0.28171434	     -1.40265559	      0.14613463	      0.21399349	     -1.29475901	      1.82678516	      1.56277413	     -9.60141488	      0.00000000	      0.00000000	     23.86311002	      0.67642441	     -0.67254828	     16.33010707	    -15.66103435	     80.47748119	     55.45837981	      2.05270979	     -6.25745891	     -5.15651345	     11.18691634	    -14.41426330	     56.36780908	     51.16190722	     73.54658074	      7.12336664	      0.29527243
      4.15254237	      1.17032196	     -1.32271464	     90.49846277	      0.28273935	      0.96993457	      0.47526989	      3.46729958	      2.34157148	     12.81177655	      1.88199355	      0.03284698	     28.61934752	    -15.19036272	      0.00000000	      6.03276710	     -3.06394128	      7.13969988	      3.88416887	      0.06779154	     35.30844462	      4.51595614	      0.00000000	      0.23842205	      0.13388786	     -1.74653035	      0.44277358	      0.17807085	     -1.85568850	      0.39170358	      0.32553494	     -1.85568850	      0.27249256	      0.32553494	     -1.52821406	      0.22139871	      0.27302412	     -1.41905591	      0.13623436	      0.20739229	     -1.30989777	      1.70302484	      1.51456621	     -9.71367787	      0.00000000	      0.00000000	     22.90412941	      0.24733499	      0.19755550	     16.11363310	    -15.47061738	     79.20439347	     55.42442146	      2.09215054	     -6.90459203	     -3.77273972	     10.99959332	    -14.50364988	     55.85845402	     51.39415618	     73.48365855	      7.10777597	      0.35345017
